<?xml version="1.0" encoding="UTF-8" standalone="no"?>
<svg
   width="38"
   height="38"
   viewBox="0 0 38 38"
   fill="none"
   version="1.1"
   id="svg4413"
   sodipodi:docname="logo-icon.svg"
   inkscape:version="1.2.1 (9c6d41e410, 2022-07-14)"
   xmlns:inkscape="http://www.inkscape.org/namespaces/inkscape"
   xmlns:sodipodi="http://sodipodi.sourceforge.net/DTD/sodipodi-0.dtd"
   xmlns:xlink="http://www.w3.org/1999/xlink"
   xmlns="http://www.w3.org/2000/svg"
   xmlns:svg="http://www.w3.org/2000/svg">
  <sodipodi:namedview
     id="namedview4415"
     pagecolor="#ffffff"
     bordercolor="#000000"
     borderopacity="0.25"
     inkscape:showpageshadow="2"
     inkscape:pageopacity="0.0"
     inkscape:pagecheckerboard="0"
     inkscape:deskcolor="#d1d1d1"
     showgrid="false"
     inkscape:zoom="5.7405906"
     inkscape:cx="2.6129716"
     inkscape:cy="4.3549526"
     inkscape:window-width="1303"
     inkscape:window-height="745"
     inkscape:window-x="-8"
     inkscape:window-y="-8"
     inkscape:window-maximized="1"
     inkscape:current-layer="svg4413" />
  <defs
     id="defs4411">
    <filter
       id="filter0_dd_4072_258"
       x="0"
       y="0"
       width="38"
       height="38"
       filterUnits="userSpaceOnUse"
       color-interpolation-filters="sRGB">
      <feFlood
         flood-opacity="0"
         result="BackgroundImageFix"
         id="feFlood4360" />
      <feColorMatrix
         in="SourceAlpha"
         type="matrix"
         values="0 0 0 0 0 0 0 0 0 0 0 0 0 0 0 0 0 0 127 0"
         result="hardAlpha"
         id="feColorMatrix4362" />
      <feOffset
         dy="1"
         id="feOffset4364" />
      <feGaussianBlur
         stdDeviation="1"
         id="feGaussianBlur4366" />
      <feColorMatrix
         type="matrix"
         values="0 0 0 0 0.0627451 0 0 0 0 0.0941176 0 0 0 0 0.156863 0 0 0 0.06 0"
         id="feColorMatrix4368" />
      <feBlend
         mode="normal"
         in2="BackgroundImageFix"
         result="effect1_dropShadow_4072_258"
         id="feBlend4370" />
      <feColorMatrix
         in="SourceAlpha"
         type="matrix"
         values="0 0 0 0 0 0 0 0 0 0 0 0 0 0 0 0 0 0 127 0"
         result="hardAlpha"
         id="feColorMatrix4372" />
      <feOffset
         dy="1"
         id="feOffset4374" />
      <feGaussianBlur
         stdDeviation="1.5"
         id="feGaussianBlur4376" />
      <feColorMatrix
         type="matrix"
         values="0 0 0 0 0.0627451 0 0 0 0 0.0941176 0 0 0 0 0.156863 0 0 0 0.1 0"
         id="feColorMatrix4378" />
      <feBlend
         mode="normal"
         in2="effect1_dropShadow_4072_258"
         result="effect2_dropShadow_4072_258"
         id="feBlend4380" />
      <feBlend
         mode="normal"
         in="SourceGraphic"
         in2="effect2_dropShadow_4072_258"
         result="shape"
         id="feBlend4382" />
    </filter>
    <linearGradient
       id="paint0_linear_4072_258"
       x1="19"
       y1="2"
       x2="19"
       y2="34"
       gradientUnits="userSpaceOnUse">
      <stop
         stop-color="white"
         id="stop4385" />
      <stop
         offset="1"
         stop-color="#D0D5DD"
         id="stop4387" />
    </linearGradient>
    <linearGradient
       id="paint1_linear_4072_258"
       x1="10.1989"
       y1="24.2137"
       x2="27.8347"
       y2="6.57791"
       gradientUnits="userSpaceOnUse">
      <stop
         stop-color="#0076C1"
         id="stop4390" />
      <stop
         offset="0.0737"
         stop-color="#0B82C6"
         id="stop4392" />
      <stop
         offset="0.2766"
         stop-color="#269ED3"
         id="stop4394" />
      <stop
         offset="0.4546"
         stop-color="#36AFDA"
         id="stop4396" />
      <stop
         offset="0.587"
         stop-color="#3CB5DD"
         id="stop4398" />
    </linearGradient>
    <linearGradient
       id="paint2_linear_4072_258"
       x1="10.1388"
       y1="24.2537"
       x2="27.8274"
       y2="6.56509"
       gradientUnits="userSpaceOnUse">
      <stop
         stop-color="#00A482"
         id="stop4401" />
      <stop
         offset="1"
         stop-color="#79DD83"
         id="stop4403" />
    </linearGradient>
    <linearGradient
       id="paint3_linear_4072_258"
       x1="24.8608"
       y1="13.5073"
       x2="28.5287"
       y2="10.1132"
       gradientUnits="userSpaceOnUse">
      <stop
         stop-color="#00A482"
         id="stop4406" />
      <stop
         offset="1"
         stop-color="#79DD83"
         id="stop4408" />
    </linearGradient>
    <filter
       id="filter0_dd_4155_249-5-4"
       x="0"
       y="0"
       width="38"
       height="38"
       filterUnits="userSpaceOnUse"
       color-interpolation-filters="sRGB">
      <feFlood
         flood-opacity="0"
         result="BackgroundImageFix"
         id="feFlood18-2-3" />
      <feColorMatrix
         in="SourceAlpha"
         type="matrix"
         values="0 0 0 0 0 0 0 0 0 0 0 0 0 0 0 0 0 0 127 0"
         result="hardAlpha"
         id="feColorMatrix20-8-6" />
      <feOffset
         dy="1"
         id="feOffset22-5-1" />
      <feGaussianBlur
         stdDeviation="1"
         id="feGaussianBlur24-9-9" />
      <feColorMatrix
         type="matrix"
         values="0 0 0 0 0.0627451 0 0 0 0 0.0941176 0 0 0 0 0.156863 0 0 0 0.06 0"
         id="feColorMatrix26-7-0" />
      <feBlend
         mode="normal"
         in2="BackgroundImageFix"
         result="effect1_dropShadow_4155_249"
         id="feBlend28-8-3" />
      <feColorMatrix
         in="SourceAlpha"
         type="matrix"
         values="0 0 0 0 0 0 0 0 0 0 0 0 0 0 0 0 0 0 127 0"
         result="hardAlpha"
         id="feColorMatrix30-6-5" />
      <feOffset
         dy="1"
         id="feOffset32-5-8" />
      <feGaussianBlur
         stdDeviation="1.5"
         id="feGaussianBlur34-8-2" />
      <feColorMatrix
         type="matrix"
         values="0 0 0 0 0.0627451 0 0 0 0 0.0941176 0 0 0 0 0.156863 0 0 0 0.1 0"
         id="feColorMatrix36-3-3" />
      <feBlend
         mode="normal"
         in2="effect1_dropShadow_4155_249"
         result="effect2_dropShadow_4155_249"
         id="feBlend38-0-5" />
      <feBlend
         mode="normal"
         in="SourceGraphic"
         in2="effect2_dropShadow_4155_249"
         result="shape"
         id="feBlend40-5-6" />
    </filter>
    <linearGradient
       inkscape:collect="always"
       xlink:href="#paint0_linear_4072_258"
       id="linearGradient762-8"
       gradientUnits="userSpaceOnUse"
       x1="19"
       y1="2"
       x2="19"
       y2="34" />
  </defs>
  <g
     id="g2936"
     transform="translate(-31.299357,-62.623508)">
    <g
       filter="url(#filter0_dd_4155_249)"
       id="g14-0-4"
       style="filter:url(#filter0_dd_4155_249-5-4)"
       transform="translate(31.299357,62.623508)">
      <rect
         x="3.0999999"
         y="2.0999999"
         width="31.799999"
         height="31.799999"
         rx="7.9000001"
         fill="#ffffff"
         id="rect2-5-6" />
      <rect
         x="3.0999999"
         y="2.0999999"
         width="31.799999"
         height="31.799999"
         rx="7.9000001"
         fill="url(#paint0_linear_4155_249)"
         id="rect4-6-9"
         style="fill:url(#linearGradient762-8)" />
      <rect
         x="3.0999999"
         y="2.0999999"
         width="31.799999"
         height="31.799999"
         rx="7.9000001"
         stroke="#d0d5dd"
         stroke-width="0.2"
         id="rect6-4-3" />
    </g>
    <rect
       style="opacity:0.101923;fill:#0000ff;fill-rule:evenodd;stroke-width:5.63632;stop-color:#000000"
       id="rect2871"
       width="29.81666"
       height="29.177734"
       x="35.391026"
       y="66.022598"
       ry="6.1817226" />
    <path
       style="opacity:0.611538;fill:#008000;stroke:none;stroke-width:0.055109"
       d="m 49.118178,90.71344 v -0.93685 h -7.329511 c -0.861614,0 -2.207615,0.2616 -2.918573,-0.31308 -0.957048,-0.77351 -0.5533,-2.776505 -0.5533,-3.875214 V 74.731804 h 21.657875 v 4.2434 c 0.215091,0 0.789878,0.10333 0.903624,-0.127743 0.220822,-0.448808 0.03323,-1.411013 0.03323,-1.911293 v -3.526982 c 0,-0.691454 0.05042,-1.460655 -0.274501,-2.094146 -0.94567,-1.843472 -3.694237,-1.26751 -5.401737,-1.26751 0,-0.418273 0.03135,-0.838506 -0.19189,-1.2124 -0.459059,-0.768794 -1.66479,-0.923096 -2.258867,-0.215288 -0.347629,0.414233 -0.359806,0.915719 -0.359806,1.427688 h -4.35362 c -0.616396,0 -1.441874,0.145588 -2.035784,-0.01753 -0.358702,-0.09851 -0.184888,-0.698531 -0.286123,-0.974445 -0.232782,-0.634192 -0.891721,-0.949894 -1.535725,-0.871583 -0.497304,0.06047 -0.967385,0.443374 -1.113203,0.92669 -0.08123,0.269368 0.08498,0.822478 -0.267755,0.919336 -1.530792,0.420385 -3.331663,-0.572246 -4.676109,0.602713 -1.159306,1.013158 -0.776461,3.00263 -0.776461,4.374626 v 11.021819 c 0,1.416855 -0.339491,3.230494 0.936855,4.214244 0.90214,0.69532 2.241993,0.47003 3.306545,0.47003 h 7.494839 M 44.433904,69.091871 c 0.243364,0 0.421202,0.176966 0.474271,0.404766 0.119697,0.513831 0.137608,1.531835 -0.0099,2.038618 -0.06167,0.212086 -0.236141,0.37398 -0.464404,0.37398 -0.228261,0 -0.402737,-0.161889 -0.464403,-0.37398 -0.147473,-0.506783 -0.129563,-1.524787 -0.0099,-2.038618 0.05307,-0.2278 0.230907,-0.404766 0.474268,-0.404766 m 9.423656,0.0085 c 0.203133,0.0077 0.373311,0.145307 0.423348,0.341242 0.131161,0.513599 0.141357,1.637738 -0.0064,2.146622 -0.05825,0.200756 -0.263973,0.331921 -0.472009,0.314666 -0.22738,-0.01885 -0.389017,-0.207856 -0.428363,-0.42255 -0.09743,-0.532062 -0.135568,-1.517719 0.01135,-2.038142 0.0588,-0.208385 0.254327,-0.350097 0.472064,-0.341838 m -10.85647,1.883996 c 5.5e-5,0.380331 0.01444,0.759293 0.201092,1.102183 0.465508,0.855073 1.619216,1.000267 2.267079,0.273335 0.347297,-0.389705 0.397446,-0.877894 0.397501,-1.375518 h 6.557984 c 0,0.455704 4.99e-4,0.89015 0.297037,1.267466 0.652382,0.82964 1.893382,0.75197 2.379776,-0.220393 0.163013,-0.325937 0.13375,-0.693933 0.13375,-1.047073 h 2.755455 c 0.713607,0 1.38985,0.01195 1.789227,0.716418 0.332308,0.586251 0.194701,1.446641 0.194701,2.094148 H 38.316799 c 0,-0.706268 -0.148509,-1.578865 0.246249,-2.20356 0.366061,-0.579286 0.956749,-0.607006 1.572351,-0.607006 h 2.865673 m -1.983928,6.583774 c -1.048753,0.198228 -0.826637,1.438623 -0.826637,2.233682 0,0.384717 -0.04518,0.824597 0.209591,1.147096 0.443596,0.561506 2.224693,0.468868 2.876519,0.319136 0.266452,-0.06122 0.503586,-0.277529 0.605703,-0.529377 0.089,-0.2195 0.05561,-0.484685 0.05561,-0.716419 0,-0.596776 0.189299,-1.581686 -0.171335,-2.08902 -0.43977,-0.618655 -2.076493,-0.492344 -2.749447,-0.365098 m 4.684273,0 c -1.037594,0.199495 -0.771527,1.511202 -0.771527,2.288791 0,0.343826 -0.06382,0.749429 0.146203,1.046246 0.432554,0.611326 2.20668,0.517475 2.884797,0.364877 0.970802,-0.218396 0.716475,-1.6196 0.716418,-2.347977 0,-0.33826 0.0094,-0.702477 -0.201257,-0.989594 -0.449911,-0.613199 -2.099384,-0.49218 -2.774634,-0.362343 m 5.786456,3.721628 v -0.936855 h -0.936855 v -1.873709 h 1.87371 v 0.936854 h 0.936853 c 0,-0.459829 0.117823,-1.101299 -0.188417,-1.485575 -0.160367,-0.201203 -0.38885,-0.315224 -0.638218,-0.362343 -0.657176,-0.124271 -2.125008,-0.223688 -2.639285,0.261548 -0.5075,0.478843 -0.352534,1.982991 -0.271303,2.633443 0.02998,0.23978 0.136946,0.475481 0.326245,0.630559 0.392873,0.321836 1.063056,0.196078 1.53727,0.196078 m 3.747418,-2.314583 v -0.495981 h 2.810565 c -0.05996,-1.153764 -1.39112,-0.936854 -2.204365,-0.936854 -0.386369,0 -0.824266,-0.04133 -1.154921,0.201258 -0.235426,0.172712 -0.620585,0.920873 -0.299794,1.174926 0.179546,0.142237 0.629788,0.05665 0.848515,0.05665 m -12.234244,-0.49598 v 1.873709 h -1.87371 v -1.873709 h 1.87371 m 4.739384,0 v 1.873709 h -1.873711 v -1.873709 h 1.873711 M 40.85184,83.25435 c -0.909433,0.275656 -0.661398,1.614532 -0.661355,2.333925 2.2e-5,0.33826 -0.0094,0.702476 0.201259,0.989595 0.442279,0.602838 2.290098,0.54332 2.939961,0.319302 0.883727,-0.304699 0.6062,-1.627703 0.6062,-2.355969 0,-0.340133 0.03824,-0.706113 -0.188418,-0.989539 -0.438117,-0.54784 -1.50353,-0.33308 -2.126165,-0.33308 -0.247648,0 -0.531775,-0.03687 -0.771482,0.03576 m 4.739337,-0.0064 c -0.946995,0.230191 -0.66131,1.618609 -0.66131,2.340318 0,0.338149 -0.04034,0.693879 0.163674,0.986839 0.429466,0.616725 2.212134,0.520395 2.867327,0.339747 0.952452,-0.26265 0.716417,-1.509934 0.716417,-2.263441 0,-0.369286 0.01928,-0.782438 -0.220048,-1.091987 -0.435915,-0.56371 -2.220569,-0.468372 -2.86606,-0.311476 m -2.590128,0.907468 v 1.873708 h -1.87371 v -1.873708 h 1.87371 m 4.739384,0 v 1.873708 h -1.873711 v -1.873708 h 1.873711"
       id="path859"
       sodipodi:nodetypes="ccscsccccsscccccsscsccsssssccscsccccscscccccscccccscccssccssssssccssccsccccccccscscsccccsscccccccccccccsscsssccsscscccccccccccc" />
    <path
       d="m 56.436298,78.297503 c -1.268831,0.04585 -2.439955,0.291197 -3.582092,0.862623 -4.704112,2.353544 -5.75124,8.793323 -2.199403,12.606373 1.669695,1.792529 4.037238,2.583069 6.442803,2.477759 1.014063,-0.0444 2.071772,-0.35915 2.975893,-0.81121 5.074721,-2.537389 5.895625,-9.750394 1.487944,-13.335296 -0.724739,-0.589447 -1.538481,-1.056992 -2.4248,-1.355353 -0.865599,-0.291362 -1.782393,-0.478071 -2.700345,-0.444896 m 4.739383,13.193446 c 0,-1.2976 0.250965,-2.79811 -0.881802,-3.72162 -0.506397,-0.41288 -1.150237,-0.5355 -1.763436,-0.71031 -0.19773,-0.0564 -0.574181,-0.089 -0.643785,-0.31985 -0.170782,-0.56608 0.62053,-1.075674 0.804153,-1.585763 0.12846,-0.356887 -0.0017,-0.817489 0.148409,-1.140814 0.120853,-0.26006 0.418442,-0.28023 0.456744,-0.622678 0.167641,-1.499298 -0.94005,-3.03348 -2.473903,-3.186904 -1.232075,-0.123279 -2.419125,0.546297 -2.908052,1.698959 -0.22165,0.522599 -0.546902,1.770159 0.207707,1.983927 5.5e-5,0.576662 0.05853,1.143238 0.349281,1.653273 0.21669,0.380088 0.790926,0.742154 0.554342,1.252134 -0.09655,0.208036 -0.486338,0.242866 -0.683186,0.298636 -0.548556,0.15552 -1.136626,0.27191 -1.598165,0.62764 -1.195427,0.92142 -0.936855,2.44155 -0.936855,3.77337 -1.199337,-0.5593 -1.981943,-2.53259 -2.226406,-3.74742 -0.827354,-4.112347 2.159009,-8.350953 6.469806,-8.539757 4.3232,-0.189299 7.969493,3.522684 7.44827,7.878447 -0.152541,1.27495 -0.626423,2.51706 -1.43074,3.52699 -0.255212,0.32046 -0.51428,0.70539 -0.892382,0.88174 m -2.810565,-8.541908 c -0.382291,-0.182576 -0.453327,-0.780069 -0.8818,-0.861795 -0.39403,-0.07517 -0.884391,0.449249 -1.212346,0.623559 -0.511467,0.271798 -1.087852,0.293346 -1.653272,0.293346 0.02018,-2.433618 3.642876,-2.482886 3.747418,-0.05511 m -3.306548,0.991934 c 0.447816,-0.05659 0.90131,-0.09137 1.322618,-0.268712 0.228483,-0.09616 0.578261,-0.40665 0.826638,-0.38637 0.672937,0.055 0.770094,0.88136 0.671889,1.3715 -0.19707,0.983643 -1.374917,1.506518 -2.214725,0.901695 -0.216357,-0.155793 -0.392376,-0.377717 -0.489643,-0.626149 -0.125814,-0.321341 -0.116777,-0.653429 -0.116777,-0.991964 m 1.928818,2.755455 0.110218,0.936859 c -0.563986,0.35115 -0.648412,0.35115 -1.2124,0 l 0.11022,-0.936859 h 0.991962 m 2.314583,6.006889 v -3.14122 h -0.936855 v 3.52699 c -1.292419,0.250629 -2.456156,0.266389 -3.747418,0 v -3.52696 h -0.936855 v 3.14122 c -1.111221,-0.19806 -0.936855,-1.03169 -0.936855,-1.92882 0,-0.5011 -0.09429,-1.11353 0.04348,-1.59816 0.220106,-0.77456 1.095073,-1.10764 1.830229,-1.20424 0.681479,-0.0896 1.160266,1.0021 1.8186,1.08669 0.535771,0.0689 1.156298,-0.76524 1.598163,-1.00375 0.421034,-0.22727 1.362298,0.1559 1.706178,0.43404 0.759183,0.61413 0.498187,1.91845 0.498187,2.78141 0,0.26513 0.09032,0.73901 -0.05665,0.97047 -0.155187,0.24441 -0.609339,0.41403 -0.880201,0.46236 z"
       style="opacity:0.676923;fill:#008000;stroke:none;stroke-width:0.055109"
       id="path1460" />
    <path
       style="fill:#ff0000;stroke-width:0.0115914"
       d="m 44.695369,81.94132 c -0.109811,-0.02333 -0.106655,-0.02074 -1.036989,-0.835103 -0.990647,-0.867123 -1.217484,-1.073572 -1.61207,-1.467175 -0.434416,-0.43333 -0.696424,-0.741392 -0.926835,-1.089754 -0.354033,-0.535281 -0.53509,-1.037914 -0.584557,-1.622797 -0.06805,-0.804591 0.181727,-1.521167 0.716024,-2.054186 0.386744,-0.385826 0.863921,-0.622456 1.422172,-0.705264 0.249647,-0.037 0.588066,-0.02702 0.857762,0.0253 0.390534,0.07581 0.803777,0.261438 1.114847,0.500873 0.05623,0.04328 0.108706,0.08256 0.116601,0.08729 0.0088,0.0055 0.0448,-0.01563 0.09273,-0.05373 0.294281,-0.233959 0.645389,-0.40677 1.02864,-0.506286 0.29578,-0.07683 0.721425,-0.09701 1.020269,-0.04847 0.198892,0.03237 0.376715,0.08018 0.545809,0.146902 0.1656,0.06536 0.218207,0.09128 0.369909,0.182442 0.591685,0.355542 1.011088,0.952153 1.146613,1.631092 0.0697,0.349156 0.06763,0.771904 -0.0053,1.09761 l -0.01181,0.05271 0.10206,0.105832 c 0.382633,0.396777 0.634675,0.920071 0.717809,1.490326 0.02758,0.189189 0.02762,0.564615 6.9e-5,0.742523 -0.06244,0.403282 -0.206456,0.781307 -0.421748,1.107021 -0.473251,0.715979 -1.235293,1.157377 -2.095148,1.213569 -0.565025,0.03692 -1.150174,-0.116186 -1.625874,-0.425435 l -0.118539,-0.07706 -0.25818,0.222702 c -0.157634,0.135975 -0.281139,0.233363 -0.317133,0.250072 -0.06392,0.02969 -0.171721,0.04281 -0.237067,0.02899 z m 2.791222,-0.806571 c 0.751006,-0.157484 1.337679,-0.747881 1.497969,-1.507467 0.03156,-0.149573 0.04277,-0.421334 0.02412,-0.585361 -0.09643,-0.848733 -0.706687,-1.518646 -1.542542,-1.693342 -0.08938,-0.0187 -0.177319,-0.02687 -0.331046,-0.03087 -0.189551,-0.0047 -0.224828,-0.0024 -0.373225,0.02475 -0.193628,0.03559 -0.371956,0.0933 -0.525462,0.170092 -0.540825,0.270559 -0.914934,0.756271 -1.044042,1.355498 -0.02246,0.104245 -0.02627,0.156627 -0.02651,0.365126 -2.48e-4,0.207729 0.0035,0.262546 0.02599,0.373886 0.09334,0.463142 0.326296,0.84863 0.691256,1.143825 0.229572,0.185694 0.527644,0.328259 0.80062,0.382935 0.169599,0.03394 0.241738,0.03959 0.452063,0.03511 0.167231,-0.0031 0.236861,-0.01029 0.3508,-0.03425 z m -0.837637,-0.92597 c -0.0964,-0.03205 -0.135187,-0.06434 -0.42563,-0.3546 -0.349739,-0.349478 -0.362583,-0.368394 -0.362583,-0.534072 0,-0.08445 0.0046,-0.107969 0.03246,-0.164624 0.04102,-0.08353 0.127784,-0.162527 0.214417,-0.195215 0.05293,-0.01995 0.0834,-0.02396 0.153025,-0.0198 0.129419,0.0079 0.177907,0.0359 0.351162,0.204728 l 0.148312,0.144506 0.471826,-0.47037 c 0.532207,-0.530568 0.520215,-0.521369 0.680664,-0.522241 0.158395,-7.85e-4 0.275997,0.07047 0.344073,0.208782 0.03364,0.06834 0.03825,0.0889 0.03824,0.170666 -1.1e-5,0.171852 0.01955,0.147467 -0.6809,0.848882 -0.6875,0.688444 -0.683515,0.685137 -0.83513,0.69392 -0.05145,0.0031 -0.101389,-7.86e-4 -0.129934,-0.01061 z"
       id="path2777"
       sodipodi:nodetypes="scssssccsccccsssscsssssscsssscsccccssscsccccccscccscscsssccc" />
    <path
       d="m 41.642551,76.325605 h 1.1 v -1.0999 h 1.2587 v 1.0999 h 1.1 v 1.2588 h -1.1 v 1.0999 h -1.2587 v -1.0999 h -1.1 z"
       style="fill:#ffffff"
       id="path2787-5" />
  </g>
</svg>
