<?xml version="1.0" encoding="UTF-8" standalone="no"?>
<svg
   width="164"
   height="38"
   viewBox="0 0 164 38"
   fill="none"
   version="1.1"
   id="svg71"
   sodipodi:docname="logo-full.svg"
   inkscape:version="1.2.1 (9c6d41e410, 2022-07-14)"
   xml:space="preserve"
   xmlns:inkscape="http://www.inkscape.org/namespaces/inkscape"
   xmlns:sodipodi="http://sodipodi.sourceforge.net/DTD/sodipodi-0.dtd"
   xmlns:xlink="http://www.w3.org/1999/xlink"
   xmlns="http://www.w3.org/2000/svg"
   xmlns:svg="http://www.w3.org/2000/svg"><sodipodi:namedview
     id="namedview73"
     pagecolor="#ffffff"
     bordercolor="#000000"
     borderopacity="0.25"
     inkscape:showpageshadow="2"
     inkscape:pageopacity="0.0"
     inkscape:pagecheckerboard="0"
     inkscape:deskcolor="#d1d1d1"
     showgrid="false"
     inkscape:zoom="1.6600609"
     inkscape:cx="49.094583"
     inkscape:cy="121.68228"
     inkscape:window-width="1303"
     inkscape:window-height="745"
     inkscape:window-x="-8"
     inkscape:window-y="-8"
     inkscape:window-maximized="1"
     inkscape:current-layer="g513" /><defs
     id="defs69"><filter
       id="filter0_dd_4155_249"
       x="0"
       y="0"
       width="38"
       height="38"
       filterUnits="userSpaceOnUse"
       color-interpolation-filters="sRGB"><feFlood
         flood-opacity="0"
         result="BackgroundImageFix"
         id="feFlood18" /><feColorMatrix
         in="SourceAlpha"
         type="matrix"
         values="0 0 0 0 0 0 0 0 0 0 0 0 0 0 0 0 0 0 127 0"
         result="hardAlpha"
         id="feColorMatrix20" /><feOffset
         dy="1"
         id="feOffset22" /><feGaussianBlur
         stdDeviation="1"
         id="feGaussianBlur24" /><feColorMatrix
         type="matrix"
         values="0 0 0 0 0.0627451 0 0 0 0 0.0941176 0 0 0 0 0.156863 0 0 0 0.06 0"
         id="feColorMatrix26" /><feBlend
         mode="normal"
         in2="BackgroundImageFix"
         result="effect1_dropShadow_4155_249"
         id="feBlend28" /><feColorMatrix
         in="SourceAlpha"
         type="matrix"
         values="0 0 0 0 0 0 0 0 0 0 0 0 0 0 0 0 0 0 127 0"
         result="hardAlpha"
         id="feColorMatrix30" /><feOffset
         dy="1"
         id="feOffset32" /><feGaussianBlur
         stdDeviation="1.5"
         id="feGaussianBlur34" /><feColorMatrix
         type="matrix"
         values="0 0 0 0 0.0627451 0 0 0 0 0.0941176 0 0 0 0 0.156863 0 0 0 0.1 0"
         id="feColorMatrix36" /><feBlend
         mode="normal"
         in2="effect1_dropShadow_4155_249"
         result="effect2_dropShadow_4155_249"
         id="feBlend38" /><feBlend
         mode="normal"
         in="SourceGraphic"
         in2="effect2_dropShadow_4155_249"
         result="shape"
         id="feBlend40" /></filter><linearGradient
       id="paint0_linear_4155_249"
       x1="19"
       y1="2"
       x2="19"
       y2="34"
       gradientUnits="userSpaceOnUse"><stop
         stop-color="white"
         id="stop43" /><stop
         offset="1"
         stop-color="#D0D5DD"
         id="stop45" /></linearGradient><linearGradient
       id="paint1_linear_4155_249"
       x1="10.1989"
       y1="24.2137"
       x2="27.8347"
       y2="6.57788"
       gradientUnits="userSpaceOnUse"><stop
         stop-color="#0076C1"
         id="stop48" /><stop
         offset="0.0737"
         stop-color="#0B82C6"
         id="stop50" /><stop
         offset="0.2766"
         stop-color="#269ED3"
         id="stop52" /><stop
         offset="0.4546"
         stop-color="#36AFDA"
         id="stop54" /><stop
         offset="0.587"
         stop-color="#3CB5DD"
         id="stop56" /></linearGradient><linearGradient
       id="paint2_linear_4155_249"
       x1="10.1388"
       y1="24.2537"
       x2="27.8274"
       y2="6.56509"
       gradientUnits="userSpaceOnUse"><stop
         stop-color="#00A482"
         id="stop59" /><stop
         offset="1"
         stop-color="#79DD83"
         id="stop61" /></linearGradient><linearGradient
       id="paint3_linear_4155_249"
       x1="24.8608"
       y1="13.5072"
       x2="28.5288"
       y2="10.1131"
       gradientUnits="userSpaceOnUse"><stop
         stop-color="#00A482"
         id="stop64" /><stop
         offset="1"
         stop-color="#79DD83"
         id="stop66" /></linearGradient><filter
       id="filter0_dd_4155_249-5"
       x="0"
       y="0"
       width="38"
       height="38"
       filterUnits="userSpaceOnUse"
       color-interpolation-filters="sRGB"><feFlood
         flood-opacity="0"
         result="BackgroundImageFix"
         id="feFlood18-2" /><feColorMatrix
         in="SourceAlpha"
         type="matrix"
         values="0 0 0 0 0 0 0 0 0 0 0 0 0 0 0 0 0 0 127 0"
         result="hardAlpha"
         id="feColorMatrix20-8" /><feOffset
         dy="1"
         id="feOffset22-5" /><feGaussianBlur
         stdDeviation="1"
         id="feGaussianBlur24-9" /><feColorMatrix
         type="matrix"
         values="0 0 0 0 0.0627451 0 0 0 0 0.0941176 0 0 0 0 0.156863 0 0 0 0.06 0"
         id="feColorMatrix26-7" /><feBlend
         mode="normal"
         in2="BackgroundImageFix"
         result="effect1_dropShadow_4155_249"
         id="feBlend28-8" /><feColorMatrix
         in="SourceAlpha"
         type="matrix"
         values="0 0 0 0 0 0 0 0 0 0 0 0 0 0 0 0 0 0 127 0"
         result="hardAlpha"
         id="feColorMatrix30-6" /><feOffset
         dy="1"
         id="feOffset32-5" /><feGaussianBlur
         stdDeviation="1.5"
         id="feGaussianBlur34-8" /><feColorMatrix
         type="matrix"
         values="0 0 0 0 0.0627451 0 0 0 0 0.0941176 0 0 0 0 0.156863 0 0 0 0.1 0"
         id="feColorMatrix36-3" /><feBlend
         mode="normal"
         in2="effect1_dropShadow_4155_249"
         result="effect2_dropShadow_4155_249"
         id="feBlend38-0" /><feBlend
         mode="normal"
         in="SourceGraphic"
         in2="effect2_dropShadow_4155_249"
         result="shape"
         id="feBlend40-5" /></filter><filter
       id="filter0_dd_4155_249-5-4"
       x="0"
       y="0"
       width="38"
       height="38"
       filterUnits="userSpaceOnUse"
       color-interpolation-filters="sRGB"><feFlood
         flood-opacity="0"
         result="BackgroundImageFix"
         id="feFlood18-2-3" /><feColorMatrix
         in="SourceAlpha"
         type="matrix"
         values="0 0 0 0 0 0 0 0 0 0 0 0 0 0 0 0 0 0 127 0"
         result="hardAlpha"
         id="feColorMatrix20-8-6" /><feOffset
         dy="1"
         id="feOffset22-5-1" /><feGaussianBlur
         stdDeviation="1"
         id="feGaussianBlur24-9-9" /><feColorMatrix
         type="matrix"
         values="0 0 0 0 0.0627451 0 0 0 0 0.0941176 0 0 0 0 0.156863 0 0 0 0.06 0"
         id="feColorMatrix26-7-0" /><feBlend
         mode="normal"
         in2="BackgroundImageFix"
         result="effect1_dropShadow_4155_249"
         id="feBlend28-8-3" /><feColorMatrix
         in="SourceAlpha"
         type="matrix"
         values="0 0 0 0 0 0 0 0 0 0 0 0 0 0 0 0 0 0 127 0"
         result="hardAlpha"
         id="feColorMatrix30-6-5" /><feOffset
         dy="1"
         id="feOffset32-5-8" /><feGaussianBlur
         stdDeviation="1.5"
         id="feGaussianBlur34-8-2" /><feColorMatrix
         type="matrix"
         values="0 0 0 0 0.0627451 0 0 0 0 0.0941176 0 0 0 0 0.156863 0 0 0 0.1 0"
         id="feColorMatrix36-3-3" /><feBlend
         mode="normal"
         in2="effect1_dropShadow_4155_249"
         result="effect2_dropShadow_4155_249"
         id="feBlend38-0-5" /><feBlend
         mode="normal"
         in="SourceGraphic"
         in2="effect2_dropShadow_4155_249"
         result="shape"
         id="feBlend40-5-6" /></filter><linearGradient
       inkscape:collect="always"
       xlink:href="#paint0_linear_4155_249"
       id="linearGradient762-8"
       gradientUnits="userSpaceOnUse"
       x1="19"
       y1="2"
       x2="19"
       y2="34" /><linearGradient
       inkscape:collect="always"
       xlink:href="#paint2_linear_4155_249"
       id="linearGradient766-1"
       gradientUnits="userSpaceOnUse"
       x1="10.1388"
       y1="24.2537"
       x2="27.8274"
       y2="6.5650902"
       gradientTransform="translate(37.323232,61.418733)" /><linearGradient
       inkscape:collect="always"
       xlink:href="#paint2_linear_4155_249"
       id="linearGradient766-1-4"
       gradientUnits="userSpaceOnUse"
       x1="10.1388"
       y1="24.2537"
       x2="27.8274"
       y2="6.5650902"
       gradientTransform="translate(35.214876,65.033058)" /></defs><text
     xml:space="preserve"
     style="font-weight:bold;font-size:22.0907px;font-family:Cambria;-inkscape-font-specification:'Cambria Bold';fill:#cccccc;fill-rule:evenodd;stroke-width:3.55029;stop-color:#000000"
     x="37.749256"
     y="26.378725"
     id="text462"><tspan
       sodipodi:role="line"
       id="tspan460"
       x="37.749256"
       y="26.378725"
       style="font-style:italic;font-variant:normal;font-weight:bold;font-stretch:normal;font-family:Cambria;-inkscape-font-specification:'Cambria Bold Italic';stroke-width:3.55029;fill:#cccccc"><tspan
   style="fill:#cccccc"
   id="tspan3144">R</tspan>endez<tspan
   style="fill:#cccccc"
   id="tspan3040">V</tspan>ous</tspan></text><path
     d="m 54.594132,79.923933 h 1.1 v -1.1 h 1.2587 v 1.1 h 1.0999 v 1.2587 h -1.0917 c 1.6219,0.8195 4.6005,2.0388 8.1799,2.5812 1.1779,-1.3934 2.0636,-2.9023 2.5966,-4.4355 -1.0074,-0.9939 -2.243,-1.61 -3.7157,-1.8333 -2.8314,-0.4293 -3.8667,0.31 -5.076,0.7945 -0.803,0.3218 -1.3944,-0.073 -1.3599,-0.3409 0.0532,-0.4151 1.637,-1.0948 1.3032,-1.2509 -1.3171,-0.6157 -2.9536,-0.653 -4.2076,0.3758 -1.5583,1.2784 -2.114,0.3726 -2.114,0.3726 0,0 0.7995,-1.9261 3.11,-2.8451 4.3559,-1.7324 9.1196,-0.3643 11.2827,1.7305 0.4687,0.4538 0.8668,0.9143 1.2077,1.3719 0.1945,-1.0745 0.2103,-2.1447 0.0232,-3.1797 -0.6835,-3.779 -4.2487,-5.91988 -7.4449,-4.814 -3.1818,1.10091 -4.4228,3.2406 -4.4228,3.2406 0,0 -1.241,-2.13969 -4.4228,-3.2406 -1.8255,-0.63173 -3.7707,-0.2027 -5.23121,0.98421 0.68611,1.46899 1.48981,2.84159 3.77921,5.60209 1.8614,2.2449 4.1455,3.6279 4.1455,3.6279 z"
     fill="url(#paint2_linear_4155_249)"
     id="path10-0-6"
     style="fill:url(#linearGradient766-1);filter:url(#filter0_dd_4155_249-5-4)" /><path
     d="m 52.485776,83.538258 h 1.1 v -1.1 h 1.2587 v 1.1 h 1.0999 v 1.2587 h -1.0917 c 1.6219,0.8195 4.6005,2.0388 8.1799,2.5812 1.1779,-1.3934 2.0636,-2.9023 2.5966,-4.4355 -1.0074,-0.9939 -2.243,-1.61 -3.7157,-1.8333 -2.8314,-0.4293 -3.8667,0.31 -5.076,0.7945 -0.803,0.3218 -1.3944,-0.073 -1.3599,-0.3409 0.0532,-0.4151 1.637,-1.0948 1.3032,-1.2509 -1.3171,-0.6157 -2.9536,-0.653 -4.2076,0.3758 -1.5583,1.2784 -2.114,0.3726 -2.114,0.3726 0,0 0.7995,-1.9261 3.11,-2.8451 4.3559,-1.7324 9.1196,-0.3643 11.2827,1.7305 0.4687,0.4538 0.8668,0.9143 1.2077,1.3719 0.1945,-1.0745 0.2103,-2.1447 0.0232,-3.1797 -0.6835,-3.779 -4.2487,-5.91988 -7.4449,-4.814 -3.1818,1.10091 -4.4228,3.2406 -4.4228,3.2406 0,0 -1.241,-2.13969 -4.4228,-3.2406 -1.8255,-0.63173 -3.7707,-0.2027 -5.23121,0.98421 0.68611,1.46899 1.48981,2.84159 3.77921,5.60209 1.8614,2.2449 4.1455,3.6279 4.1455,3.6279 z"
     fill="url(#paint2_linear_4155_249)"
     id="path10-0-6-6"
     style="fill:url(#linearGradient766-1-4);filter:url(#filter0_dd_4155_249-5-4)" /><g
     id="g2936"
     transform="translate(-33.011303,-62.614987)"><g
       filter="url(#filter0_dd_4155_249)"
       id="g14-0-4"
       style="filter:url(#filter0_dd_4155_249-5-4)"
       transform="translate(31.299357,62.623508)"><rect
         x="3.0999999"
         y="2.0999999"
         width="31.799999"
         height="31.799999"
         rx="7.9000001"
         fill="#ffffff"
         id="rect2-5-6" /><rect
         x="3.0999999"
         y="2.0999999"
         width="31.799999"
         height="31.799999"
         rx="7.9000001"
         fill="url(#paint0_linear_4155_249)"
         id="rect4-6-9"
         style="fill:url(#linearGradient762-8)" /><rect
         x="3.0999999"
         y="2.0999999"
         width="31.799999"
         height="31.799999"
         rx="7.9000001"
         stroke="#d0d5dd"
         stroke-width="0.2"
         id="rect6-4-3" /></g><g
       id="g513"
       transform="matrix(2.1334738,0,0,2.1334738,-38.977704,-80.029212)"
       style="fill:#ffcc00"><g
         id="g7559"
         inkscape:export-filename="..\..\..\..\g7559.png"
         inkscape:export-xdpi="96"
         inkscape:export-ydpi="96"><path
           style="opacity:0.523517;fill:#c8ab37;stroke:none;stroke-width:0.0675073"
           d="m 50.006444,93.505443 v -1.147619 h -8.978479 c -1.055457,0 -2.704276,0.320454 -3.575183,-0.383515 -1.172362,-0.947532 -0.677779,-3.401154 -0.677779,-4.747047 V 73.928315 H 63.30539 v 5.198066 c 0.263482,0 0.967582,0.126576 1.106918,-0.156484 0.270503,-0.549778 0.04071,-1.728457 0.04071,-2.341288 v -4.32047 c 0,-0.847015 0.06176,-1.789268 -0.336258,-2.56528 -1.158423,-2.258209 -4.525353,-1.552669 -6.617001,-1.552669 0,-0.512375 0.0384,-1.02715 -0.23506,-1.485163 -0.562337,-0.941753 -2.039329,-1.130771 -2.767059,-0.263722 -0.425837,0.507426 -0.440754,1.121734 -0.440754,1.748885 h -5.333087 c -0.755071,0 -1.766263,0.178341 -2.493788,-0.02147 -0.439401,-0.120672 -0.226484,-0.855684 -0.350494,-1.193673 -0.285152,-0.77687 -1.092337,-1.163597 -1.881227,-1.067669 -0.609186,0.07408 -1.185024,0.543124 -1.363648,1.135175 -0.09951,0.329969 0.104103,1.007515 -0.327994,1.126164 -1.875184,0.514963 -4.081208,-0.700987 -5.728123,0.73831 -1.420123,1.241095 -0.951147,3.678151 -0.951147,5.358813 v 13.50147 c 0,1.735613 -0.415867,3.957279 1.147626,5.162349 1.1051,0.851751 2.746389,0.575777 4.05044,0.575777 h 9.181003 M 44.268319,67.019529 c 0.298115,0 0.515962,0.21678 0.580971,0.495829 0.146625,0.629431 0.168566,1.876463 -0.01213,2.49726 -0.07554,0.2598 -0.289266,0.458116 -0.568883,0.458116 -0.279615,0 -0.493344,-0.19831 -0.568883,-0.458116 -0.180651,-0.620797 -0.158712,-1.867829 -0.01212,-2.49726 0.06501,-0.279049 0.282855,-0.495829 0.580966,-0.495829 m 11.543758,0.01039 c 0.248833,0.0094 0.457297,0.177998 0.51859,0.418014 0.16067,0.629146 0.17316,2.00619 -0.0078,2.629561 -0.07136,0.245921 -0.32336,0.406596 -0.578199,0.385458 -0.278536,-0.02309 -0.476538,-0.254618 -0.524735,-0.517614 -0.119349,-0.651762 -0.166068,-1.859169 0.0139,-2.496675 0.07203,-0.255267 0.311544,-0.428861 0.578267,-0.418744 m -13.29892,2.307851 c 6.7e-5,0.465896 0.01769,0.930116 0.246333,1.350148 0.570236,1.047445 1.983501,1.225303 2.777118,0.334829 0.425431,-0.47738 0.486863,-1.075399 0.48693,-1.684977 h 8.033376 c 0,0.558227 6.11e-4,1.090412 0.363863,1.552616 0.799153,1.01629 2.319349,0.921146 2.915169,-0.269976 0.199688,-0.399265 0.163841,-0.850052 0.163841,-1.28264 H 60.8751 c 0.874151,0 1.702533,0.01464 2.19176,0.877596 0.40707,0.718143 0.238504,1.7721 0.238504,2.565281 H 36.775009 c 0,-0.865162 -0.18192,-1.934072 0.301649,-2.699309 0.448416,-0.709612 1.171995,-0.743568 1.926093,-0.743568 h 3.510382 m -2.430265,8.064969 c -1.284698,0.242823 -1.012612,1.762279 -1.012612,2.736207 0,0.47127 -0.05534,1.010112 0.256744,1.405166 0.543396,0.687831 2.725198,0.574352 3.523669,0.390934 0.326398,-0.075 0.616881,-0.339966 0.741972,-0.648475 0.109023,-0.268881 0.06812,-0.593727 0.06812,-0.877595 0,-0.731037 0.231887,-1.937529 -0.209882,-2.559001 -0.538707,-0.757838 -2.543654,-0.60311 -3.368007,-0.447236 m 5.738124,0 c -1.271028,0.244376 -0.945102,1.851186 -0.945102,2.803714 0,0.421179 -0.07818,0.918034 0.179095,1.281627 0.529868,0.748861 2.703131,0.633895 3.533808,0.446966 1.18921,-0.26753 0.877666,-1.983971 0.877596,-2.876217 0,-0.41436 0.01151,-0.860518 -0.246535,-1.212229 -0.551131,-0.751155 -2.571696,-0.602909 -3.398862,-0.443861 m 7.088273,4.558906 V 80.81402 h -1.147625 v -2.29525 h 2.29525 v 1.147624 h 1.147623 c 0,-0.563279 0.14433,-1.349064 -0.230807,-1.819794 -0.196445,-0.246469 -0.476331,-0.386142 -0.781801,-0.443861 -0.805026,-0.15223 -2.603086,-0.274013 -3.233063,0.32039 -0.621675,0.586571 -0.431845,2.429116 -0.332339,3.225905 0.03673,0.293726 0.167755,0.582453 0.399642,0.77242 0.48126,0.394241 1.302219,0.240191 1.88312,0.240191 m 4.590499,-2.83531 V 78.51877 h 3.442876 c -0.07345,-1.413334 -1.70409,-1.147624 -2.700296,-1.147624 -0.473292,0 -1.009706,-0.05063 -1.414751,0.246536 -0.288391,0.211568 -0.760202,1.128048 -0.36724,1.439257 0.219939,0.174237 0.771475,0.0694 1.039411,0.0694 m -14.98666,-0.607546 v 2.295249 h -2.295252 v -2.295249 h 2.295252 m 5.805634,0 v 2.295249 h -2.295253 v -2.295249 h 2.295253 m -8.438368,5.84944 c -1.114034,0.337673 -0.810197,1.977765 -0.810144,2.859003 2.6e-5,0.414362 -0.01151,0.860517 0.246538,1.212231 0.541781,0.738463 2.805315,0.665554 3.601383,0.391138 1.082544,-0.373249 0.74258,-1.993898 0.74258,-2.886007 0,-0.416654 0.04685,-0.864972 -0.230807,-1.212162 -0.536683,-0.671091 -1.84179,-0.408016 -2.604503,-0.408016 -0.303362,0 -0.651411,-0.04517 -0.945047,0.04381 m 5.805577,-0.0078 c -1.160047,0.281978 -0.81009,1.982758 -0.81009,2.866834 0,0.414225 -0.04942,0.849986 0.200498,1.208854 0.526085,0.755475 2.709812,0.637472 3.512408,0.416183 1.16673,-0.32174 0.877594,-1.849634 0.877594,-2.772662 0,-0.452366 0.02362,-0.958468 -0.269554,-1.337658 -0.533986,-0.690532 -2.720145,-0.573745 -3.510856,-0.381551 m -3.172846,1.111627 v 2.295248 h -2.295251 v -2.295271 h 2.295251 m 5.805633,0 v 2.295247 h -2.295251 v -2.295247 h 2.295251"
           id="path859"
           sodipodi:nodetypes="ccscsccccsscccccsscsccsssssccscsccccscscccccscccccscccssccssssssccssccsccccccccscscsccccsscccccccccccccsscsssccsscscccccccccccc"
           transform="matrix(0.46871914,0,0,0.46871914,18.269596,37.511223)" /><path
           style="fill:#c8ab37;stroke-width:0.0128498"
           d="M 43.608933,81.899305 C 43.487201,81.873445 43.4907,81.876315 42.459368,80.973542 41.361176,80.012284 41.109713,79.783422 40.67229,79.34709 40.190714,78.866717 39.900262,78.525212 39.644838,78.139031 39.25237,77.54564 39.051658,76.98844 38.996821,76.340062 c -0.07544,-0.891938 0.201455,-1.686306 0.793756,-2.27719 0.428729,-0.427711 0.957709,-0.69003 1.576564,-0.781828 0.276749,-0.04102 0.651907,-0.02995 0.950881,0.02805 0.432931,0.08404 0.891036,0.28982 1.235876,0.555248 0.06233,0.04798 0.120507,0.09152 0.129259,0.09677 0.0098,0.0061 0.04966,-0.01733 0.102797,-0.05956 0.326228,-0.259357 0.715453,-0.450929 1.14031,-0.561248 0.32789,-0.08517 0.799743,-0.107542 1.13103,-0.05373 0.220484,0.03588 0.417611,0.08888 0.605062,0.162849 0.183578,0.07246 0.241896,0.10119 0.410067,0.202248 0.655918,0.39414 1.120852,1.05552 1.27109,1.808165 0.07727,0.387061 0.07497,0.855702 -0.0059,1.216767 l -0.01309,0.05843 0.11314,0.117322 c 0.424172,0.439851 0.703576,1.019954 0.795735,1.652117 0.03057,0.209727 0.03062,0.62591 7.6e-5,0.823131 -0.06922,0.447063 -0.228869,0.866127 -0.467533,1.2272 -0.524627,0.793707 -1.369397,1.283023 -2.322599,1.345315 -0.626364,0.04093 -1.275037,-0.128799 -1.80238,-0.47162 l -0.131407,-0.08543 -0.286209,0.246879 c -0.174746,0.150736 -0.311659,0.258697 -0.351561,0.27722 -0.07086,0.03291 -0.190363,0.04746 -0.262803,0.03214 z m 3.094239,-0.894133 c 0.832536,-0.174581 1.482899,-0.829072 1.66059,-1.671119 0.03499,-0.165811 0.04741,-0.467074 0.02674,-0.648908 -0.106898,-0.940872 -0.783405,-1.683512 -1.710001,-1.877173 -0.09908,-0.02073 -0.196569,-0.02979 -0.366985,-0.03422 -0.210129,-0.0052 -0.249235,-0.0027 -0.413742,0.02744 -0.214649,0.03945 -0.412336,0.103429 -0.582507,0.188557 -0.599537,0.299931 -1.01426,0.838373 -1.157384,1.502652 -0.0249,0.115562 -0.02912,0.173631 -0.02939,0.404764 -2.75e-4,0.230281 0.0039,0.291049 0.02881,0.414476 0.103473,0.513421 0.361719,0.940758 0.766299,1.267999 0.254494,0.205853 0.584925,0.363895 0.887536,0.424507 0.188011,0.03762 0.267981,0.04389 0.501139,0.03892 0.185386,-0.0034 0.262575,-0.01141 0.388883,-0.03797 z m -0.928571,-1.026494 c -0.106866,-0.03553 -0.149863,-0.07133 -0.471837,-0.393096 -0.387707,-0.387418 -0.401945,-0.408387 -0.401945,-0.592051 0,-0.09362 0.0051,-0.11969 0.03598,-0.182496 0.04547,-0.0926 0.141656,-0.180171 0.237694,-0.216408 0.05868,-0.02211 0.09245,-0.02656 0.169637,-0.02195 0.143469,0.0088 0.197221,0.0398 0.389285,0.226953 l 0.164413,0.160194 0.523047,-0.521434 c 0.589984,-0.588167 0.57669,-0.577969 0.754558,-0.578936 0.17559,-8.7e-4 0.305959,0.07812 0.381426,0.231448 0.03729,0.07576 0.0424,0.09855 0.04239,0.189194 -1.2e-5,0.190508 0.02167,0.163476 -0.754819,0.941037 -0.762136,0.763182 -0.757718,0.759516 -0.925792,0.769252 -0.05704,0.0034 -0.112396,-8.71e-4 -0.14404,-0.01176 z"
           id="path2777"
           sodipodi:nodetypes="scssssccsccccsssscsssssscsssscsccccssscsccccccscccscscsssccc" /><path
           d="m 39.872576,75.690316 h 1.1 v -1.0999 h 1.2587 v 1.0999 h 1.1 v 1.2588 h -1.1 v 1.0999 h -1.2587 v -1.0999 h -1.1 z"
           style="fill:#f4eed7"
           id="path2787-5" /></g></g></g></svg>
